<svg id="Icon" xmlns="http://www.w3.org/2000/svg" viewBox="0 0 206 232.75">
<defs>
  <style>
    .pumpkin_back{fill:#e26600;}
    .pumpkin_stalk{fill:#b3d618;}
    .pumpkin_dark{fill:#f77016;}
    .pumpkin_mid{fill:#f77a1c;}
    .pumpkin_light{fill:#f7931e;}

    .pumpkin_text{
    	font-size:48px;
    	font-family:ArialNarrow, Arial;
    }
  </style>

</defs>
<g id="Pumpkin">
  <ellipse class="pumpkin_back" cx="150.5" cy="137.25" rx="34.5" ry="69.5"/>
  <ellipse class="pumpkin_back" cx="116.5" cy="137.25" rx="34.5" ry="74.5"/>
  <ellipse class="pumpkin_back" cx="53.5" cy="137.25" rx="34.5" ry="69.5"/>
  <ellipse class="pumpkin_back" cx="87.5" cy="137.25" rx="34.5" ry="74.5"/>
  <path class="pumpkin_stalk" d="M557,246c9.56-13.85,23.18-9.56,29-20,7-12.53-9.07-25.13-2-40,4.59-9.64,16.88-16,23-13,7.52,3.68,7,22.09,4,34-3.66,14.72-11,19.61-8,26s11.44,3.94,21,13c1.85,1.75,10.41,9.86,9,16-3.61,15.71-73.11,21.32-81,3C548.88,257.76,555.79,247.75,557,246Z" transform="translate(-489 -172.25)"/>
  <ellipse class="pumpkin_dark" cx="171.5" cy="148.25" rx="34.5" ry="70.5"/>
  <ellipse class="pumpkin_mid" cx="137.5" cy="148.25" rx="34.5" ry="76.5"/>
  <ellipse class="pumpkin_dark" cx="34.5" cy="148.25" rx="34.5" ry="70.5"/>
  <ellipse class="pumpkin_mid" cx="68.5" cy="148.25" rx="34.5" ry="76.5"/>
  <ellipse class="pumpkin_light" cx="102.5" cy="148.25" rx="34.5" ry="84.5"/>
	
    <text x="50%" y="60%" dominant-baseline="central" text-anchor="middle" class="pumpkin_text">
      text
    </text>
  </g>
</svg>